<?xml version="1.0" encoding="UTF-8"?>
<svg version="1.1" xmlns="http://www.w3.org/2000/svg" width="79" height="78">
<path d="M0 0 C26.07 0 52.14 0 79 0 C79 25.74 79 51.48 79 78 C52.93 78 26.86 78 0 78 C0 52.26 0 26.52 0 0 Z " fill="#FEFEFD" transform="translate(0,0)"/>
<path d="M0 0 C2 2 2 2 2 5 C1.34 5 0.68 5 0 5 C0 5.66 0 6.32 0 7 C-0.66 7 -1.32 7 -2 7 C-2.215354 7.53915039 -2.43070801 8.07830078 -2.65258789 8.63378906 C-4.4803434 11.84353837 -6.96484086 14.27010687 -9.55859375 16.859375 C-10.10354996 17.40861633 -10.64850616 17.95785767 -11.2099762 18.52374268 C-12.35984641 19.67934131 -13.51232679 20.83234783 -14.66723633 21.98291016 C-16.43659622 23.74909784 -18.1921899 25.5282245 -19.94726562 27.30859375 C-21.06689741 28.43049737 -22.18731364 29.55161879 -23.30859375 30.671875 C-23.83368027 31.20617126 -24.35876678 31.74046753 -24.89976501 32.29095459 C-28.65619042 36 -28.65619042 36 -32 36 C-36.78191045 28.43433453 -38.20874772 21.90596197 -37 13 C-35.28099112 6.80145621 -31.39294213 2.40104995 -26 -1 C-16.69737197 -5.36317952 -9.07348244 -4.54503508 0 0 Z " fill="#373737" transform="translate(56,15)"/>
<path d="M0 0 C4.08650171 1.7341877 5.42712912 3.56533974 7.23046875 7.53125 C9.33283923 14.27591061 8.85585406 20.94690815 6 27.375 C2.35626492 33.81364551 -3.05502808 37.64988052 -10 40 C-17.82773433 41.1422961 -24.564323 39.70095748 -31 35 C-31.495 33.515 -31.495 33.515 -32 32 C-29.51017809 29.43904032 -27.04769994 27.03794313 -24.25 24.8125 C-21.92512612 23.19690923 -21.92512612 23.19690923 -21 21 C-20.34 21 -19.68 21 -19 21 C-18.7525 20.38125 -18.505 19.7625 -18.25 19.125 C-16.76259631 16.59641373 -15.56321991 16.28160996 -13 15 C-12.61714844 14.15695313 -12.61714844 14.15695313 -12.2265625 13.296875 C-10.50491362 10.07289556 -7.97528234 7.76448623 -5.375 5.25 C-4.859375 4.74339844 -4.34375 4.23679687 -3.8125 3.71484375 C-2.54616661 2.47196098 -1.2736856 1.23534724 0 0 Z " fill="#EE6E28" transform="translate(52,27)"/>
</svg>
