<?xml version="1.0" encoding="UTF-8" standalone="no"?>
<!DOCTYPE svg PUBLIC "-//W3C//DTD SVG 1.1//EN" "http://www.w3.org/Graphics/SVG/1.1/DTD/svg11.dtd">
<svg xmlns="http://www.w3.org/2000/svg" version="1.1" viewBox="0.00 0.00 1024.00 1024.00">
<path fill="#ffffff" d="
  M 663.46 445.84
  A 0.28 0.27 46.5 0 0 663.45 446.33
  Q 680.18 455.44 691.65 461.34
  C 698.87 465.04 704.66 471.47 704.29 479.76
  C 703.77 491.33 695.81 495.67 686.67 500.65
  Q 658.71 515.89 555.45 571.70
  Q 545.08 577.30 525.65 588.17
  Q 522.75 589.80 517.24 590.52
  Q 506.53 591.92 496.87 586.63
  Q 458.78 565.77 406.83 537.71
  Q 351.41 507.78 335.92 499.61
  Q 335.85 499.58 330.64 496.40
  Q 327.13 494.26 325.65 492.80
  C 316.02 483.28 318.72 468.93 330.24 462.47
  Q 345.31 454.04 360.25 446.32
  A 0.22 0.22 0.0 0 0 360.25 445.93
  Q 344.90 438.11 331.08 430.43
  Q 326.96 428.14 322.38 422.70
  A 4.09 4.05 13.1 0 1 321.79 421.76
  Q 316.11 409.71 324.89 399.93
  C 327.44 397.09 332.42 394.71 336.18 392.64
  Q 350.40 384.80 360.64 379.75
  A 0.31 0.31 0.0 0 0 360.64 379.19
  Q 344.72 371.13 333.40 365.08
  C 325.89 361.06 319.49 355.89 319.61 346.33
  C 319.72 337.97 324.80 332.30 331.82 328.35
  Q 336.03 325.97 381.45 301.63
  Q 419.43 281.27 495.02 241.29
  Q 506.65 235.14 519.25 237.57
  Q 523.44 238.38 528.28 240.95
  Q 668.88 315.93 693.45 329.28
  Q 695.26 330.26 698.64 333.38
  C 705.76 339.96 706.20 350.77 700.00 358.20
  Q 697.76 360.87 692.72 363.71
  Q 677.51 372.27 663.35 379.12
  A 0.37 0.36 -50.3 0 0 663.41 379.80
  Q 665.39 380.32 666.54 380.95
  Q 678.87 387.69 690.46 393.85
  C 693.14 395.28 697.10 397.64 699.25 400.12
  C 707.29 409.39 705.75 421.20 695.71 428.49
  Q 693.62 430.00 689.57 432.14
  C 680.60 436.88 673.18 441.13 663.46 445.84
  Z
  M 512.07 433.20
  Q 515.64 433.20 518.61 431.61
  Q 598.38 388.97 677.89 346.64
  A 0.29 0.28 49.0 0 0 677.92 346.16
  C 675.95 344.75 673.46 343.81 671.56 342.81
  Q 594.63 302.07 518.02 260.73
  Q 515.02 259.11 512.07 259.11
  Q 509.12 259.11 506.12 260.73
  Q 429.51 302.07 352.58 342.82
  C 350.68 343.82 348.19 344.76 346.22 346.17
  A 0.29 0.28 -49.0 0 0 346.25 346.65
  Q 425.77 388.97 505.54 431.61
  Q 508.51 433.20 512.07 433.20
  Z
  M 512.22 456.78
  Q 503.76 456.79 495.30 452.18
  Q 473.35 440.24 384.53 392.56
  A 0.95 0.93 -44.4 0 0 383.64 392.56
  L 346.55 412.54
  A 0.37 0.37 0.0 0 0 346.55 413.19
  Q 476.09 482.55 505.61 498.41
  Q 508.73 500.08 512.24 500.08
  Q 515.75 500.08 518.86 498.40
  Q 548.37 482.52 677.86 413.06
  A 0.37 0.37 0.0 0 0 677.86 412.41
  L 640.75 392.46
  A 0.95 0.93 44.4 0 0 639.86 392.46
  Q 551.08 440.21 529.14 452.17
  Q 520.68 456.78 512.22 456.78
  Z
  M 347.11 479.73
  Q 347.52 480.13 347.92 480.35
  Q 466.28 543.83 503.50 564.42
  Q 508.62 567.26 511.41 567.52
  Q 515.35 567.90 519.57 565.59
  Q 557.60 544.81 573.00 536.50
  Q 678.00 479.85 678.05 479.83
  A 0.15 0.15 0.0 0 0 678.05 479.56
  L 640.26 459.18
  A 0.77 0.75 -48.1 0 0 639.48 459.23
  Q 638.32 460.02 637.02 460.73
  Q 610.71 475.12 530.31 518.32
  C 527.61 519.77 522.00 522.85 518.43 523.53
  Q 512.55 524.66 506.18 523.51
  Q 502.50 522.84 494.97 518.78
  Q 403.02 469.20 384.42 459.04
  A 0.32 0.32 0.0 0 0 384.12 459.04
  L 347.22 478.92
  A 0.51 0.51 0.0 0 0 347.11 479.73
  Z"
/>
<path fill="#ffffff" d="
  M 772.38 700.12
  A 0.26 0.26 0.0 0 0 772.12 700.38
  L 772.12 753.65
  A 0.33 0.33 0.0 0 1 771.79 753.98
  L 754.45 753.98
  A 0.54 0.54 0.0 0 1 753.91 753.44
  L 753.91 700.60
  A 0.47 0.47 0.0 0 0 753.44 700.13
  L 744.35 700.13
  A 0.36 0.35 -0.0 0 1 743.99 699.78
  L 743.99 685.91
  A 0.84 0.84 0.0 0 1 744.83 685.07
  L 753.12 685.07
  A 0.58 0.57 -1.0 0 0 753.70 684.48
  C 753.35 673.19 755.33 663.88 766.18 658.12
  C 773.10 654.45 780.66 654.53 788.50 654.81
  A 0.73 0.72 1.2 0 1 789.20 655.53
  L 789.20 670.02
  A 0.88 0.88 0.0 0 1 788.29 670.90
  C 777.59 670.57 772.39 672.94 772.08 684.51
  A 0.63 0.62 -89.1 0 0 772.70 685.16
  L 787.68 685.16
  A 0.56 0.55 0.0 0 1 788.24 685.71
  L 788.24 699.40
  A 0.72 0.72 0.0 0 1 787.52 700.12
  L 772.38 700.12
  Z"
/>
<path fill="#ffffff" d="
  M 252.13 722.98
  A 0.45 0.45 0.0 0 1 252.66 723.39
  Q 253.69 735.27 264.84 738.62
  Q 273.39 741.19 281.17 737.74
  Q 286.51 735.37 287.36 729.91
  C 288.51 722.52 283.48 719.45 277.23 717.23
  C 262.55 712.01 240.47 709.36 237.72 688.94
  C 235.32 671.12 247.96 658.16 265.05 656.35
  C 285.14 654.22 300.97 662.32 304.93 682.93
  A 0.79 0.79 0.0 0 1 304.32 683.85
  L 288.11 687.42
  A 1.03 1.02 74.1 0 1 286.92 686.75
  C 285.89 683.71 285.16 681.23 283.28 678.97
  C 277.87 672.46 266.34 672.27 259.91 677.59
  Q 257.79 679.34 257.43 682.23
  C 256.40 690.34 265.31 693.60 271.98 695.56
  Q 284.44 699.22 293.12 703.37
  C 301.21 707.23 306.38 714.72 306.96 724.11
  C 307.95 740.45 297.93 752.02 282.57 755.94
  Q 277.13 757.33 269.37 757.08
  C 254.23 756.58 239.87 749.04 235.64 733.85
  Q 234.46 729.60 233.99 726.83
  A 0.62 0.61 -10.0 0 1 234.49 726.13
  L 252.13 722.98
  Z"
/>
<path fill="#ffffff" d="
  M 534.05 686.67
  Q 533.87 686.21 532.81 683.20
  C 529.71 674.32 519.03 672.20 510.95 675.00
  C 504.67 677.17 501.46 684.63 506.85 689.74
  Q 509.67 692.42 514.21 694.04
  Q 520.78 696.40 530.98 699.79
  C 541.80 703.39 551.47 708.96 553.49 720.99
  Q 556.42 738.33 543.32 749.05
  C 530.31 759.70 507.13 760.03 493.58 749.97
  Q 483.02 742.12 480.85 727.07
  A 0.92 0.92 0.0 0 1 481.59 726.03
  L 498.40 723.03
  A 1.16 1.15 -9.1 0 1 499.75 724.00
  C 501.11 733.26 507.10 738.79 516.47 739.67
  C 524.62 740.44 534.59 737.23 534.24 727.26
  C 534.07 722.57 529.57 719.69 525.34 718.15
  Q 522.65 717.16 507.00 712.03
  C 503.43 710.86 496.48 707.54 493.40 704.73
  Q 485.15 697.21 484.67 686.90
  Q 483.77 667.24 500.87 659.33
  Q 513.25 653.61 528.23 657.38
  Q 547.69 662.29 551.82 682.23
  A 1.23 1.22 77.9 0 1 550.89 683.68
  L 534.99 687.18
  A 0.82 0.82 0.0 0 1 534.05 686.67
  Z"
/>
<path fill="#ffffff" d="
  M 338.12 675.82
  L 312.83 675.82
  A 0.31 0.31 0.0 0 1 312.52 675.51
  L 312.52 657.51
  A 0.31 0.31 0.0 0 1 312.83 657.20
  L 382.59 657.20
  A 0.31 0.31 0.0 0 1 382.90 657.51
  L 382.90 675.49
  A 0.31 0.31 0.0 0 1 382.59 675.80
  L 358.45 675.80
  A 0.31 0.31 0.0 0 0 358.14 676.11
  L 358.14 753.65
  A 0.31 0.31 0.0 0 1 357.83 753.96
  L 338.74 753.96
  A 0.31 0.31 0.0 0 1 338.43 753.65
  L 338.43 676.13
  A 0.31 0.31 0.0 0 0 338.12 675.82
  Z"
/>
<path fill="#ffffff" d="
  M 395.47 657.16
  L 414.30 657.16
  A 0.33 0.33 0.0 0 1 414.63 657.49
  L 414.63 736.14
  A 0.33 0.33 0.0 0 0 414.96 736.47
  L 452.88 736.47
  A 0.33 0.33 0.0 0 1 453.21 736.80
  L 453.21 753.61
  A 0.33 0.33 0.0 0 1 452.88 753.94
  L 395.47 753.94
  A 0.33 0.33 0.0 0 1 395.14 753.61
  L 395.14 657.49
  A 0.33 0.33 0.0 0 1 395.47 657.16
  Z"
/>
<path fill="#ffffff" d="
  M 582.85 690.84
  Q 587.58 685.02 595.04 683.51
  C 599.98 682.51 607.60 682.47 612.39 684.18
  C 625.03 688.67 628.99 699.71 629.10 712.25
  Q 629.17 720.44 629.20 753.44
  A 0.51 0.51 0.0 0 1 628.69 753.95
  L 610.89 753.95
  A 0.35 0.35 0.0 0 1 610.54 753.60
  Q 610.62 736.73 610.60 717.00
  C 610.59 706.89 607.73 699.68 596.22 699.72
  C 590.79 699.74 585.82 703.16 584.23 708.28
  Q 583.51 710.58 582.91 713.62
  A 3.21 3.00 52.5 0 0 582.85 714.23
  L 582.81 753.54
  A 0.43 0.43 0.0 0 1 582.38 753.97
  L 564.44 753.97
  A 0.46 0.46 0.0 0 1 563.98 753.51
  L 563.98 657.73
  A 0.58 0.57 -90.0 0 1 564.55 657.15
  L 582.38 657.15
  A 0.54 0.54 0.0 0 1 582.92 657.69
  Q 582.76 682.88 582.84 689.32
  Q 582.85 690.15 582.68 690.26
  Q 582.37 690.47 582.39 690.70
  A 0.26 0.26 0.0 0 0 582.85 690.84
  Z"
/>
<rect fill="#ffffff" x="716.87" y="657.12" width="18.92" height="96.86" rx="0.26"/>
<path fill="#ffffff" d="
  M 704.87 733.15
  A 0.67 0.67 0.0 0 1 705.51 734.02
  Q 699.45 753.22 680.54 756.61
  C 671.25 758.27 659.40 756.23 651.71 750.63
  Q 640.73 742.65 638.42 728.31
  Q 637.28 721.14 638.39 712.85
  Q 640.30 698.73 650.51 690.31
  Q 657.77 684.33 666.19 683.22
  C 686.60 680.53 702.77 690.26 706.44 710.95
  Q 707.43 716.58 706.97 724.63
  A 0.70 0.70 0.0 0 1 706.27 725.29
  L 657.12 725.29
  A 0.33 0.33 0.0 0 0 656.80 725.68
  Q 659.15 737.63 670.39 739.91
  Q 681.07 742.08 687.79 733.53
  A 1.01 1.00 18.9 0 1 688.58 733.15
  L 704.87 733.15
  Z
  M 657.67 712.06
  L 687.17 711.86
  A 0.10 0.10 0.0 0 0 687.26 711.76
  L 687.26 711.69
  A 14.81 13.01 -0.4 0 0 672.36 698.78
  L 672.28 698.78
  A 14.81 13.01 -0.4 0 0 657.57 711.89
  L 657.57 711.96
  A 0.10 0.10 0.0 0 0 657.67 712.06
  Z"
/>
</svg>
